<svg enable-background="new 0 0 867.9 1026" viewBox="0 0 867.9 1026" xmlns="http://www.w3.org/2000/svg" xmlns:xlink="http://www.w3.org/1999/xlink"><linearGradient id="a" gradientTransform="matrix(1 0 0 -1 0 1023.8898)" gradientUnits="userSpaceOnUse" x1="-96.3341" x2="735.6181" y1="552.0324" y2="71.7048"><stop offset=".1274" stop-color="#9345f7" stop-opacity="0"/><stop offset=".8793" stop-color="#9345f7"/></linearGradient><linearGradient id="b" gradientTransform="matrix(1 0 0 -1 0 1023.8898)" gradientUnits="userSpaceOnUse" x1="132.2971" x2="964.2491" y1="950.075" y2="469.7471"><stop offset=".1165" stop-color="#14c17b"/><stop offset=".8868" stop-color="#14c17b" stop-opacity="0"/></linearGradient><linearGradient id="c" gradientTransform="matrix(1 0 0 -1 0 1023.8898)" gradientUnits="userSpaceOnUse" x1="16.2656" x2="851.6493" y1="752.1138" y2="269.8047"><stop offset=".3155" stop-color="#14c17b"/><stop offset=".6762" stop-color="#9345f7"/></linearGradient><path d="m12.8 282.8c-4.1 12.2-6.2 25.3-6.2 38.7v382.9c0 42 21.4 80.9 56 101.8l315.5 191.5c34.6 21 77.2 21 111.9 0l315.5-191.5c11-6.7 20.7-15.1 28.8-25z" fill="url(#a)"/><path d="m855.1 743.2c4.1-12.2 6.2-25.3 6.2-38.7v-383c0-42-21.4-80.9-56-101.8l-315.5-191.5c-34.6-21-77.2-21-111.9 0l-315.5 191.5c-11 6.7-20.7 15.1-28.8 25z" fill="url(#b)"/><path d="m93 201.1-30.5 18.5c-34.6 21-56 59.8-56 101.8 0 22.9 11.6 44.1 30.5 55.5l737.8 447.9 30.5-18.5c34.6-21 56-59.8 56-101.8 0-22.9-11.6-44.1-30.5-55.5z" fill="url(#c)"/></svg>