<svg enable-background="new 0 0 1336.1 318.8" viewBox="0 0 1336.1 318.8" xmlns="http://www.w3.org/2000/svg" xmlns:xlink="http://www.w3.org/1999/xlink"><linearGradient id="a" gradientUnits="userSpaceOnUse" x1="-32.7502" x2="232.2266" y1="146.3084" y2="299.2927"><stop offset=".1274" stop-color="#9345f7" stop-opacity="0"/><stop offset=".8793" stop-color="#9345f7"/></linearGradient><linearGradient id="b" gradientUnits="userSpaceOnUse" x1="40.0566" x2="305.0471" y1="19.5429" y2="172.5354"><stop offset=".1165" stop-color="#14c17b"/><stop offset=".8868" stop-color="#14c17b" stop-opacity="0"/></linearGradient><linearGradient id="c" gradientUnits="userSpaceOnUse" x1="3.0906" x2="269.1677" y1="82.602" y2="236.2217"><stop offset=".3155" stop-color="#14c17b"/><stop offset=".6762" stop-color="#9345f7"/></linearGradient><path d="m2 86.1c-1.3 3.9-2 8.1-2 12.3v122c0 13.4 6.8 25.8 17.8 32.4l100.5 61c11 6.7 24.6 6.7 35.6 0l100.5-61c3.5-2.1 6.6-4.8 9.2-8z" fill="url(#a)"/><path d="m270.3 232.7c1.3-3.9 2-8.1 2-12.3v-122c0-13.4-6.8-25.8-17.8-32.4l-100.6-61c-11-6.7-24.6-6.7-35.6 0l-100.5 61c-3.5 2.1-6.6 4.8-9.2 8z" fill="url(#b)"/><path d="m27.6 60.1-9.8 5.9c-11 6.7-17.8 19-17.8 32.4 0 7.3 3.7 14 9.7 17.7l235 142.7 9.7-5.9c11-6.7 17.8-19 17.8-32.4 0-7.3-3.7-14-9.7-17.7z" fill="url(#c)"/><g fill="#fff"><path d="m497.6 112.6c-1.1-10.6-5.7-19-14-25.2s-18.7-9.4-31.2-9.4c-8.8 0-16.6 1.5-23.3 4.5s-12 7.2-15.8 12.6c-3.8 5.3-5.7 11.4-5.7 18.2 0 5 1.1 9.4 3.2 13.2 2.2 3.8 5.1 7 8.8 9.7s7.8 5 12.2 6.9c4.5 1.9 9 3.5 13.6 4.8l20 5.7c6.1 1.7 12.1 3.8 18.2 6.4s11.6 5.9 16.6 9.8 9.1 8.7 12.1 14.4c3.1 5.7 4.6 12.4 4.6 20.3 0 10.1-2.6 19.2-7.9 27.3s-12.8 14.5-22.6 19.2-21.6 7.1-35.3 7.1c-12.9 0-24.1-2.1-33.6-6.4s-17-10.2-22.4-17.8-8.5-16.4-9.2-26.4h17.8c.6 7.5 3.1 13.8 7.4 19s9.9 9.1 16.9 11.8c6.9 2.7 14.6 4 23.2 4 9.5 0 17.9-1.6 25.3-4.8s13.2-7.6 17.4-13.3 6.3-12.4 6.3-20c0-6.4-1.7-11.8-5-16.2s-8-8-13.9-11c-6-3-12.9-5.6-20.7-7.9l-22.7-6.7c-14.9-4.4-26.4-10.6-34.7-18.4-8.2-7.8-12.3-17.9-12.3-30 0-10.2 2.7-19.2 8.2-26.9 5.5-7.8 12.9-13.8 22.2-18.2 9.4-4.4 19.9-6.5 31.6-6.5 11.8 0 22.2 2.2 31.3 6.5s16.3 10.3 21.6 17.8c5.3 7.6 8.2 16.2 8.6 25.8h-16.8z"/><path d="m610.7 258c-12.3 0-23.2-3.1-32.6-9.4-9.4-6.2-16.8-14.9-22.1-25.9s-8-23.8-8-38.2c0-14.6 2.7-27.4 8-38.5s12.7-19.7 22.1-26c9.4-6.2 20.3-9.3 32.6-9.3s23.1 3.1 32.5 9.4c9.4 6.2 16.8 14.9 22.1 26s8 23.9 8 38.5c0 14.5-2.7 27.2-8 38.2s-12.7 19.7-22.1 25.9c-9.3 6.2-20.2 9.3-32.5 9.3zm0-15.1c9.9 0 18.3-2.7 25.1-8 6.9-5.3 12.1-12.4 15.6-21.2 3.6-8.8 5.3-18.6 5.3-29.2s-1.8-20.4-5.3-29.3c-3.6-8.9-8.8-16-15.6-21.4-6.9-5.4-15.2-8.1-25.1-8.1-9.8 0-18.2 2.7-25.1 8.1s-12.1 12.5-15.7 21.4-5.3 18.7-5.3 29.3 1.8 20.4 5.3 29.2c3.6 8.8 8.8 15.9 15.6 21.2 7 5.3 15.3 8 25.2 8z"/><path d="m726.1 65.2v189.8h-16.5v-189.8z"/><path d="m773.1 255v-189.8h16.6v74.6h1.5c1.9-4.3 4.5-8.6 8-13.2 3.5-4.5 8.1-8.3 13.8-11.4s12.9-4.6 21.6-4.6c11.7 0 21.9 3.1 30.8 9.2 8.8 6.1 15.7 14.7 20.7 25.8 4.9 11 7.4 23.9 7.4 38.5 0 14.7-2.5 27.6-7.4 38.7s-11.8 19.7-20.6 25.9-19 9.3-30.6 9.3c-8.7 0-15.9-1.5-21.6-4.6-5.8-3.1-10.4-6.9-13.9-11.4s-6.2-9-8.2-13.3h-2v26.3zm16.3-71.1c0 11.5 1.7 21.7 5.1 30.5 3.4 8.9 8.4 15.8 14.8 20.9 6.5 5 14.3 7.6 23.5 7.6 9.5 0 17.5-2.6 24-7.8s11.5-12.3 14.9-21.2 5.1-18.9 5.1-29.9c0-10.9-1.7-20.8-5.1-29.6s-8.3-15.7-14.9-20.9c-6.5-5.2-14.6-7.7-24.1-7.7-9.3 0-17.1 2.5-23.6 7.5s-11.4 11.8-14.8 20.6c-3.2 8.6-4.9 18.7-4.9 30z"/><path d="m969.5 258.3c-8.6 0-16.4-1.7-23.5-5.1s-12.8-8.2-17-14.6-6.3-14.2-6.3-23.3c0-7 1.3-13 4-17.8s6.4-8.8 11.3-11.9 10.7-5.5 17.3-7.3c6.7-1.8 14-3.2 22.1-4.2 8-1 14.7-1.9 20.3-2.6 5.5-.7 9.7-1.9 12.7-3.5 2.9-1.6 4.4-4.2 4.4-7.8v-3.3c0-9.7-2.9-17.3-8.7-22.9s-14.1-8.4-24.9-8.4c-10.3 0-18.6 2.3-25.1 6.8s-11 9.8-13.6 15.9l-15.7-5.7c3.2-7.8 7.7-14 13.3-18.7 5.7-4.7 12-8 19.1-10.1 7-2.1 14.2-3.1 21.4-3.1 5.4 0 11.1.7 17 2.1s11.4 3.9 16.5 7.4 9.2 8.3 12.3 14.6 4.7 14.1 4.7 23.6v96.6h-16.5v-22.5h-1c-2 4.2-4.9 8.3-8.8 12.2-3.9 4-8.8 7.2-14.6 9.7-5.9 2.6-12.8 3.9-20.7 3.9zm2.2-15.2c8.8 0 16.4-1.9 22.8-5.8s11.4-9.1 14.9-15.5c3.5-6.5 5.2-13.6 5.2-21.4v-20.6c-1.2 1.2-3.3 2.2-6.2 3.2-2.9.9-6.2 1.7-9.9 2.5-3.7.7-7.5 1.3-11.2 1.8s-7 .9-10 1.3c-8 1-14.9 2.5-20.6 4.6s-10 5-13.1 8.7c-3 3.7-4.5 8.4-4.5 14.1 0 8.7 3.1 15.3 9.3 20.1s14 7 23.3 7z"/><path d="m1091.5 166v89h-16.5v-142.4h16v22.4h1.5c3.3-7.3 8.5-13.1 15.6-17.6 7.1-4.4 15.8-6.6 26.3-6.6 9.6 0 18 2 25.3 6s12.9 9.8 17 17.6c4 7.7 6.1 17.2 6.1 28.5v92.1h-16.5v-91.2c0-11.7-3.3-20.9-9.8-27.7s-15.2-10.2-26.2-10.2c-7.5 0-14.1 1.6-19.9 4.8s-10.4 7.8-13.8 13.9c-3.5 6-5.1 13.2-5.1 21.4z"/><path d="m1226.2 255v-189.8h16.5v189.8zm15-53.7-.2-21.6h3.7l66.7-67h20.9l-65.9 66-1.5.3zm73.7 53.7-57.8-73.1 11.9-11.4 67.1 84.5z"/></g></svg>